<mxfile host="app.diagrams.net" modified="2023-02-10T00:57:27.500Z" agent="5.0 (Macintosh; Intel Mac OS X 10_15_7) AppleWebKit/537.36 (KHTML, like Gecko) Chrome/109.0.0.0 Safari/537.36" etag="lZfNYdJI7dcJzaGfogcR" version="20.8.8" type="github">
  <diagram id="prtHgNgQTEPvFCAcTncT" name="Page-1">
    <mxGraphModel dx="1434" dy="803" grid="1" gridSize="10" guides="1" tooltips="1" connect="1" arrows="1" fold="1" page="1" pageScale="1" pageWidth="827" pageHeight="1169" math="0" shadow="0">
      <root>
        <mxCell id="0" />
        <mxCell id="1" parent="0" />
        <mxCell id="_grzxD2Xz4BJa7TSrQb1-2" value="view" style="ellipse;whiteSpace=wrap;html=1;aspect=fixed;" vertex="1" parent="1">
          <mxGeometry x="40" y="80" width="140" height="140" as="geometry" />
        </mxCell>
        <mxCell id="_grzxD2Xz4BJa7TSrQb1-7" value="" style="endArrow=classic;startArrow=classic;html=1;rounded=0;" edge="1" parent="1">
          <mxGeometry width="50" height="50" relative="1" as="geometry">
            <mxPoint x="200" y="154.5" as="sourcePoint" />
            <mxPoint x="310" y="154.5" as="targetPoint" />
            <Array as="points">
              <mxPoint x="260" y="154.5" />
            </Array>
          </mxGeometry>
        </mxCell>
        <mxCell id="_grzxD2Xz4BJa7TSrQb1-8" value="view_model" style="ellipse;whiteSpace=wrap;html=1;aspect=fixed;" vertex="1" parent="1">
          <mxGeometry x="320" y="90" width="130" height="130" as="geometry" />
        </mxCell>
        <mxCell id="_grzxD2Xz4BJa7TSrQb1-9" value="model" style="ellipse;whiteSpace=wrap;html=1;aspect=fixed;" vertex="1" parent="1">
          <mxGeometry x="590" y="85" width="130" height="130" as="geometry" />
        </mxCell>
        <mxCell id="_grzxD2Xz4BJa7TSrQb1-10" value="repository" style="ellipse;whiteSpace=wrap;html=1;aspect=fixed;" vertex="1" parent="1">
          <mxGeometry x="470" y="435" width="130" height="130" as="geometry" />
        </mxCell>
        <mxCell id="_grzxD2Xz4BJa7TSrQb1-11" value="" style="endArrow=classic;startArrow=classic;html=1;rounded=0;" edge="1" parent="1">
          <mxGeometry width="50" height="50" relative="1" as="geometry">
            <mxPoint x="460" y="150" as="sourcePoint" />
            <mxPoint x="570" y="150" as="targetPoint" />
            <Array as="points" />
          </mxGeometry>
        </mxCell>
        <mxCell id="_grzxD2Xz4BJa7TSrQb1-12" value="entitiy" style="ellipse;whiteSpace=wrap;html=1;aspect=fixed;" vertex="1" parent="1">
          <mxGeometry x="470" y="255" width="120" height="120" as="geometry" />
        </mxCell>
        <mxCell id="_grzxD2Xz4BJa7TSrQb1-13" value="" style="endArrow=classic;startArrow=classic;html=1;rounded=0;" edge="1" parent="1">
          <mxGeometry width="50" height="50" relative="1" as="geometry">
            <mxPoint x="570" y="265" as="sourcePoint" />
            <mxPoint x="620" y="215" as="targetPoint" />
          </mxGeometry>
        </mxCell>
        <mxCell id="_grzxD2Xz4BJa7TSrQb1-14" value="" style="endArrow=classic;startArrow=classic;html=1;rounded=0;" edge="1" parent="1">
          <mxGeometry width="50" height="50" relative="1" as="geometry">
            <mxPoint x="535" y="425" as="sourcePoint" />
            <mxPoint x="535" y="385" as="targetPoint" />
          </mxGeometry>
        </mxCell>
        <mxCell id="_grzxD2Xz4BJa7TSrQb1-16" value="" style="endArrow=classic;startArrow=classic;html=1;rounded=0;" edge="1" parent="1">
          <mxGeometry width="50" height="50" relative="1" as="geometry">
            <mxPoint x="484" y="265" as="sourcePoint" />
            <mxPoint x="444" y="195" as="targetPoint" />
          </mxGeometry>
        </mxCell>
        <mxCell id="_grzxD2Xz4BJa7TSrQb1-19" value="" style="endArrow=classic;startArrow=classic;html=1;rounded=0;" edge="1" parent="1">
          <mxGeometry width="50" height="50" relative="1" as="geometry">
            <mxPoint x="430" y="610" as="sourcePoint" />
            <mxPoint x="480" y="560" as="targetPoint" />
          </mxGeometry>
        </mxCell>
        <mxCell id="_grzxD2Xz4BJa7TSrQb1-20" value="rocal DB" style="shape=cylinder3;whiteSpace=wrap;html=1;boundedLbl=1;backgroundOutline=1;size=15;" vertex="1" parent="1">
          <mxGeometry x="370" y="620" width="60" height="100" as="geometry" />
        </mxCell>
        <mxCell id="_grzxD2Xz4BJa7TSrQb1-22" value="" style="endArrow=classic;startArrow=classic;html=1;rounded=0;" edge="1" parent="1">
          <mxGeometry width="50" height="50" relative="1" as="geometry">
            <mxPoint x="650" y="610" as="sourcePoint" />
            <mxPoint x="600" y="550" as="targetPoint" />
          </mxGeometry>
        </mxCell>
        <mxCell id="_grzxD2Xz4BJa7TSrQb1-23" value="server" style="shape=cylinder3;whiteSpace=wrap;html=1;boundedLbl=1;backgroundOutline=1;size=15;" vertex="1" parent="1">
          <mxGeometry x="650" y="620" width="60" height="100" as="geometry" />
        </mxCell>
        <mxCell id="_grzxD2Xz4BJa7TSrQb1-25" value="" style="endArrow=classic;startArrow=classic;html=1;rounded=0;" edge="1" parent="1">
          <mxGeometry width="50" height="50" relative="1" as="geometry">
            <mxPoint x="534.5" y="640" as="sourcePoint" />
            <mxPoint x="534.5" y="570" as="targetPoint" />
          </mxGeometry>
        </mxCell>
        <mxCell id="_grzxD2Xz4BJa7TSrQb1-26" value="アプリ領域" style="shape=cylinder3;whiteSpace=wrap;html=1;boundedLbl=1;backgroundOutline=1;size=15;" vertex="1" parent="1">
          <mxGeometry x="495" y="650" width="80" height="100" as="geometry" />
        </mxCell>
      </root>
    </mxGraphModel>
  </diagram>
</mxfile>
